control3min_grf.mot
version=1
nRows=20
nColumns 19
inDegrees=yes
endheader
time	1_ground_force_vx	1_ground_force_vy	1_ground_force_vz	1_ground_force_px	1_ground_force_py	1_ground_force_pz	1_ground_torque_x	1_ground_torque_y	1_ground_torque_z	2_ground_force_vx	2_ground_force_vy	2_ground_force_vz	2_ground_force_px	2_ground_force_py	2_ground_force_pz	2_ground_torque_x	2_ground_torque_y	2_ground_torque_z
            0.005000	            0.045689	           -4.144529	           -0.384739	           -0.273654	            0.006159	           -0.392182	           -0.470375	            0.037938	           -0.240943	            0.146922	           -1.660007	            0.885661	           -0.263215	            0.005267	           -0.623064	           -0.356486	           -0.124107	           -0.019137
            0.005500	           -0.137602	           -3.964495	           -0.337655	           -0.273654	            0.006159	           -0.392182	           -0.510003	           -0.257861	           -0.268736	            0.055942	           -2.397441	            1.023857	           -0.263215	            0.005267	           -0.623064	           -0.356604	           -0.104798	           -0.132171
            0.006000	            0.000185	           -2.883661	           -0.149935	           -0.273654	            0.006159	           -0.392182	           -0.593673	           -0.331593	           -0.300615	            0.054469	           -2.027973	            0.696674	           -0.263215	            0.005267	           -0.623064	           -0.318780	           -0.152598	            0.056147
            0.006500	           -0.182813	           -3.064552	           -0.012685	           -0.273654	            0.006159	           -0.392182	           -0.449244	           -0.193074	           -0.289394	           -0.178951	           -2.214306	            1.071541	           -0.263215	            0.005267	           -0.623064	           -0.281345	           -0.123835	           -0.019169
            0.007000	           -0.412121	           -5.046732	           -0.204043	           -0.273654	            0.006159	           -0.392182	           -0.571551	            0.176365	           -0.259613	            0.285478	           -1.107055	            0.887572	           -0.263215	            0.005267	           -0.623064	           -0.262789	           -0.066850	           -0.075525
            0.007500	           -0.274463	           -4.506302	           -0.110353	           -0.273654	            0.006159	           -0.392182	           -0.500737	            0.342827	           -0.253230	            0.142955	           -0.555285	            0.936531	           -0.263215	            0.005267	           -0.623064	           -0.337932	           -0.057937	           -0.000059
            0.008000	           -0.182501	           -4.146343	            0.028533	           -0.273654	            0.006159	           -0.392182	           -0.506760	            0.241114	           -0.230957	            0.148231	           -2.028137	            0.837418	           -0.263215	            0.005267	           -0.623064	           -0.243987	           -0.066916	           -0.037833
            0.008500	           -0.182615	           -4.146146	           -0.017323	           -0.273654	            0.006159	           -0.392182	           -0.504710	           -0.017783	           -0.213274	            0.099407	           -1.476028	            0.886338	           -0.263215	            0.005267	           -0.623064	           -0.281345	           -0.123835	           -0.019169
            0.009000	           -0.091777	           -3.243620	           -0.288821	           -0.273654	            0.006159	           -0.392182	           -0.474632	           -0.295208	           -0.173064	           -0.085916	           -2.029819	            1.072159	           -0.263215	            0.005267	           -0.623064	           -0.356529	           -0.114587	           -0.037953
            0.009500	           -0.091645	           -3.964683	           -0.291913	           -0.273654	            0.006159	           -0.392182	           -0.511723	           -0.239754	           -0.172709	            0.287513	           -1.659835	            0.979457	           -0.263215	            0.005267	           -0.623064	           -0.319078	           -0.076775	           -0.000134
            0.010000	           -0.183528	           -2.883107	           -0.287048	           -0.273654	            0.006159	           -0.392182	           -0.550324	           -0.100589	           -0.307551	            0.195745	           -2.212116	            0.836741	           -0.263215	            0.005267	           -0.623064	           -0.281566	           -0.066985	           -0.056667
            0.010500	           -0.137488	           -3.964692	           -0.291799	           -0.273654	            0.006159	           -0.392182	           -0.455870	            0.223050	           -0.323203	           -0.089424	           -1.107571	            0.653091	           -0.263215	            0.005267	           -0.623064	           -0.337821	           -0.086362	            0.018690
            0.011000	           -0.092197	           -4.684566	           -0.570140	           -0.273654	            0.006159	           -0.392182	           -0.499534	            0.305438	           -0.132780	           -0.087992	           -1.476705	            0.886417	           -0.263215	            0.005267	           -0.623064	           -0.281865	            0.018022	           -0.037513
            0.011500	           -0.183268	           -3.063765	           -0.196109	           -0.273654	            0.006159	           -0.392182	           -0.535027	            0.194562	           -0.155932	           -0.134198	           -1.660855	            0.838852	           -0.263215	            0.005267	           -0.623064	           -0.225330	           -0.029105	           -0.018856
            0.012000	           -0.137147	           -3.965282	           -0.154232	           -0.273654	            0.006159	           -0.392182	           -0.555307	           -0.082399	           -0.230275	            0.288801	           -2.027797	            0.884287	           -0.263215	            0.005267	           -0.623064	           -0.262756	           -0.067118	           -0.000124
            0.012500	            0.046160	           -3.604715	           -0.153141	           -0.273654	            0.006159	           -0.392182	           -0.517878	           -0.359691	           -0.204953	            0.241389	           -1.844654	            1.119604	           -0.263215	            0.005267	           -0.623064	           -0.300249	           -0.095411	           -0.056760
            0.013000	            0.000676	           -4.326180	           -0.064407	           -0.273654	            0.006159	           -0.392182	           -0.484174	           -0.275866	           -0.356991	            0.239293	           -1.291372	            0.886935	           -0.263215	            0.005267	           -0.623064	           -0.281507	           -0.076639	           -0.000150
            0.013500	            0.092134	           -4.325769	           -0.156346	           -0.273654	            0.006159	           -0.392182	           -0.442428	           -0.026812	           -0.220530	           -0.038484	           -2.213129	            0.883769	           -0.263215	            0.005267	           -0.623064	           -0.318958	           -0.114451	           -0.037969
            0.014000	           -0.137356	           -4.685754	           -0.294891	           -0.273654	            0.006159	           -0.392182	           -0.511724	            0.232283	           -0.322999	           -0.134945	           -1.476037	            0.651797	           -0.263215	            0.005267	           -0.623064	           -0.281660	           -0.038694	           -0.037715
            0.014500	           -0.045622	           -4.325402	           -0.247717	           -0.273654	            0.006159	           -0.392182	           -0.551321	            0.315268	           -0.262254	           -0.133533	           -1.845003	            0.838195	           -0.263215	            0.005267	           -0.623064	           -0.225278	           -0.047876	           -0.056623
